<svg xmlns="http://www.w3.org/2000/svg" width="24" height="24" viewBox="0 0 24 24" fill="none">
      <g id="Logo">
        <path
          id="Vector"
          d="M12 24C18.63 24 24 18.63 24 12C24 5.37 18.63 0 12 0C5.37 0 0 5.37 0 12C0 18.63 5.37 24 12 24Z"
          fill="url(#paint0_radial_189_947)"
        />
        <path
          id="Vector_2"
          d="M18.1801 7.63001C18.1401 7.21001 17.9201 6.82001 17.5801 6.56001C17.2401 6.31001 16.8001 6.21001 16.3801 6.30001C16.1901 6.34001 15.9901 6.44001 15.6001 6.63001C15.2801 6.79001 15.1201 6.87001 14.9601 6.94001C14.3001 7.20001 13.5801 7.25001 12.8901 7.09001C12.7201 7.05001 12.5501 6.99001 12.2101 6.88001L11.6601 6.70001C10.3901 6.28001 9.76008 6.07001 9.13008 6.18001C8.53008 6.29001 7.99008 6.61001 7.62008 7.09001C7.22008 7.59001 7.11008 8.26001 6.89008 9.57001L5.90008 15.54C5.83008 15.98 5.79008 16.18 5.81008 16.37C5.85008 16.79 6.07008 17.18 6.41008 17.44C6.75008 17.69 7.19008 17.79 7.60008 17.7C7.79008 17.66 7.99008 17.56 8.40008 17.35C8.71008 17.2 8.86008 17.12 9.02008 17.06C9.68008 16.8 10.4001 16.75 11.0901 16.91C11.2601 16.95 11.4301 17.01 11.7701 17.12L12.3201 17.3C13.3601 17.64 13.9701 17.85 14.5101 17.85C14.6301 17.85 14.7401 17.85 14.8601 17.82C15.4601 17.71 16.0001 17.39 16.3701 16.91C16.7701 16.41 16.8801 15.75 17.1001 14.43L18.0901 8.47001C18.1601 8.03001 18.2001 7.82001 18.1801 7.63001Z"
          fill="white"
        />
      </g>
      <defs>
        <radialGradient
          id="paint0_radial_189_947"
          cx="0"
          cy="0"
          r="1"
          gradientUnits="userSpaceOnUse"
          gradientTransform="translate(12) rotate(90) scale(24)"
        >
          <stop stopColor="#99EEFF" />
          <stop offset="0.526042" stopColor="#BB33FF" />
          <stop offset="0.864583" stopColor="#2200CC" />
          <stop offset="1" stopColor="#00AACC" />
        </radialGradient>
      </defs>
    </svg>