<svg
    id="layer-1"
    xmlns="http://www.w3.org/2000/svg"
    viewBox="225 225 950 950"
    fill="none"  // Remove color fill
    stroke="black"  // Outline in black
  >
    <path
      d="M254.01,753c5.61,2.1,10.89,4.12,16.2,6.04c8.75,3.17,17.62,6.06,26.25,9.53c3.87,1.55,5.26,0.56,6.34-3.13
            c7-23.96,14.08-47.9,21.24-71.81c4.92-16.42,10.08-32.77,14.98-49.2c0.84-2.81,1.38-5.86,1.27-8.78
            c-2.34-65.98,1.12-131.53,15.92-196.06c5.35-23.34,12.41-46.29,18.69-69.42c0.04-0.16,0.1-0.32,0.15-0.48
            c3.88-10.93,3.9-11.41,15.42-10.87c41.29,1.92,81.64,9.21,120.81,22.51c32.3,10.97,63.02,25.22,91.12,44.8
            c1.91,1.33,4.58,2.22,6.91,2.24c56.24,0.37,111.97,6.73,167.58,14.35c14.14,1.94,28.25,4.07,42.4,5.92c1.51,0.2,3.85-0.39,4.71-1.47
            c17.76-22.55,40.78-37.98,66.6-49.65c33.87-15.31,68.32-29.5,104.57-37.65c22.59-5.08,46.15-5.79,69.28-8.44
            c6.9-0.79,12.1,2.09,16.43,7.36c9.24,11.23,15.17,24.22,20.32,37.61c12.94,33.64,17.76,68.88,19.93,104.57
            c3.16,51.93-1.09,103.42-8.48,154.82c-1.91,13.32-0.96,27.24,0.09,40.78c3.28,41.97,7.25,83.89,10.96,125.83
            c0.13,1.48,0.41,2.95,0.71,5.02c17.18,0.37,33.81-1.37,49.4-9.21c1.75-0.88,3.79-2.22,5.47-1.95c2.19,0.36,4.16,2.11,6.22,3.26
            c-1.46,1.75-2.59,4.45-4.43,5.08c-6.75,2.31-13.75,3.91-20.63,5.83c-7.21,2.01-14.44,3.94-21.58,6.18
            c-2.65,0.83-5.08,2.42-7.57,3.73c-3.83,2.02-5.38,5.1-5.95,9.55c-1.46,11.38-3.52,22.69-5.65,33.97c-0.58,3.07-0.08,5.01,2.53,6.72
            c10.02,6.56,20.01,13.16,29.87,19.95c1.53,1.05,2.32,3.17,3.44,4.8c-2.31,1.34-4.53,2.86-6.97,3.88c-0.67,0.28-2.3-0.66-2.94-1.47
            c-7.42-9.47-17.68-14.07-28.96-16.7c-1.41-0.33-4.14,1.08-4.9,2.44c-11.72,20.97-27.61,38.18-46.23,53.18
            c-14.14,11.39-30.61,18.15-47.16,24.67c-83.37,32.82-167.64,63.02-254.82,84.3c-51.94,12.68-104.37,23.08-157.38,30.08
            c-19.23,2.54-38.07,0.48-56.08-9.33c-74.3-40.5-145.41-85.71-210.4-140.09c-12.99-10.87-24.8-23.16-37.05-34.89
            c-4.78-4.58-9.6-9.17-13.89-14.19c-12.54-14.68-12.3-32.01-9.65-49.72c0.44-2.95,0.99-5.97,2.08-8.73
            c1.85-4.66,0.73-7.63-3.59-10.31c-9.57-5.93-20.05-8.65-31.05-9.87c-1.64-0.18-3.42,0.28-4.96-0.15c-1.68-0.47-3.16-1.63-4.72-2.5
            c1.77-1.64,3.56-4.68,5.32-4.67c7.13,0.03,14.26,0.99,21.39,1.63c5.8,0.52,11.61,0.97,17.39,1.67c4.04,0.49,6.34-1.27,7.44-4.96
            c2.2-7.33,4.57-14.62,6.39-22.05c0.38-1.55-0.83-4.33-2.2-5.33c-6.15-4.52-12.47-8.84-19.01-12.76c-5.84-3.5-12.1-6.3-18.08-9.57
            C250.79,757.32,250.81,756.82,254.01,753z"
    />
  </svg>